# xmcd CD database file
#
# Track frame offsets:
#	150
#	22485
#	36272
#
# Disc length: 781 seconds
#
# Revision: 2
# Processed by: cddbd v1.5.2PL0 Copyright (c) Steve Scherf et al.
# Submitted via: CDex 1.70beta3
#
DISCID=25030b03
DTITLE=大槻真希 - ミラクル
DYEAR=2001
DGENRE=JPop
TTITLE0=ミラクル
TTITLE1=フレッシュマンズ・ブルース
TTITLE2=ミラクル (instrumental)
EXTD=YEAR: 2001
EXTT0=
EXTT1=
EXTT2=
PLAYORDER=
